<mxfile host="65bd71144e">
    <diagram id="6Xm5IzOyBnIjldXu5vHW" name="Page-1">
        <mxGraphModel dx="1271" dy="2419" grid="1" gridSize="10" guides="1" tooltips="1" connect="1" arrows="1" fold="1" page="1" pageScale="1" pageWidth="850" pageHeight="1100" background="#ffffff" math="0" shadow="0">
            <root>
                <mxCell id="0"/>
                <mxCell id="1" parent="0"/>
                <mxCell id="32" value="" style="whiteSpace=wrap;html=1;strokeColor=none;fillColor=none;" parent="1" vertex="1">
                    <mxGeometry x="-760" y="-1120" width="580" height="550" as="geometry"/>
                </mxCell>
                <mxCell id="2" style="edgeStyle=orthogonalEdgeStyle;rounded=0;orthogonalLoop=1;jettySize=auto;html=1;exitX=1;exitY=0.5;exitDx=0;exitDy=0;entryX=0;entryY=0.5;entryDx=0;entryDy=0;fontColor=#000000;fontFamily=Arial;fontSource=https%3A%2F%2Ffonts.googleapis.com%2Fcss%3Ffamily%3DArial;strokeColor=#000000;" parent="1" source="3" target="8" edge="1">
                    <mxGeometry relative="1" as="geometry"/>
                </mxCell>
                <mxCell id="3" value="&lt;font&gt;Mandatory User Information&lt;/font&gt;" style="swimlane;whiteSpace=wrap;html=1;fontFamily=Arial;fontSource=https%3A%2F%2Ffonts.googleapis.com%2Fcss%3Ffamily%3DArial;strokeColor=#000000;fillColor=#808080;fontColor=#000000;" parent="1" vertex="1">
                    <mxGeometry x="-750" y="-1054" width="400" height="130" as="geometry"/>
                </mxCell>
                <mxCell id="4" value="Email" style="rectangle;whiteSpace=wrap;html=1;fontFamily=Arial;fontSource=https%3A%2F%2Ffonts.googleapis.com%2Fcss%3Ffamily%3DArial;strokeColor=#000000;fillColor=#B3B3B3;fontColor=#000000;" parent="3" vertex="1">
                    <mxGeometry x="10" y="30" width="120" height="40" as="geometry"/>
                </mxCell>
                <mxCell id="5" value="API Key Preference" style="rectangle;whiteSpace=wrap;html=1;fontFamily=Arial;fontSource=https%3A%2F%2Ffonts.googleapis.com%2Fcss%3Ffamily%3DArial;strokeColor=#000000;fillColor=#B3B3B3;fontColor=#000000;" parent="3" vertex="1">
                    <mxGeometry x="270" y="30" width="120" height="40" as="geometry"/>
                </mxCell>
                <mxCell id="6" value="&lt;font&gt;Search&lt;/font&gt;" style="rectangle;whiteSpace=wrap;html=1;fontFamily=Arial;fontSource=https%3A%2F%2Ffonts.googleapis.com%2Fcss%3Ffamily%3DArial;strokeColor=#000000;fillColor=#B3B3B3;fontColor=#000000;" parent="3" vertex="1">
                    <mxGeometry x="140" y="80" width="120" height="40" as="geometry"/>
                </mxCell>
                <mxCell id="7" value="Save Preference" style="rectangle;whiteSpace=wrap;html=1;fontFamily=Arial;fontSource=https%3A%2F%2Ffonts.googleapis.com%2Fcss%3Ffamily%3DArial;strokeColor=#000000;fillColor=#B3B3B3;fontColor=#000000;" parent="3" vertex="1">
                    <mxGeometry x="270" y="80" width="120" height="40" as="geometry"/>
                </mxCell>
                <mxCell id="8" value="Optional" style="swimlane;whiteSpace=wrap;html=1;fontFamily=Arial;fontSource=https%3A%2F%2Ffonts.googleapis.com%2Fcss%3Ffamily%3DArial;strokeColor=#000000;fillColor=#808080;fontColor=#000000;" parent="1" vertex="1">
                    <mxGeometry x="-330" y="-1054" width="140" height="130" as="geometry"/>
                </mxCell>
                <mxCell id="9" value="NCBI API Key" style="rectangle;whiteSpace=wrap;html=1;fontFamily=Arial;fontSource=https%3A%2F%2Ffonts.googleapis.com%2Fcss%3Ffamily%3DArial;strokeColor=#000000;fillColor=#B3B3B3;fontColor=#000000;" parent="8" vertex="1">
                    <mxGeometry x="10" y="30" width="120" height="40" as="geometry"/>
                </mxCell>
                <mxCell id="10" value="Save Location" style="rectangle;whiteSpace=wrap;html=1;fontFamily=Arial;fontSource=https%3A%2F%2Ffonts.googleapis.com%2Fcss%3Ffamily%3DArial;strokeColor=#000000;fillColor=#B3B3B3;fontColor=#000000;" parent="8" vertex="1">
                    <mxGeometry x="10" y="80" width="120" height="40" as="geometry"/>
                </mxCell>
                <mxCell id="11" style="edgeStyle=orthogonalEdgeStyle;rounded=0;orthogonalLoop=1;jettySize=auto;html=1;exitX=0.5;exitY=1;exitDx=0;exitDy=0;entryX=0.5;entryY=0;entryDx=0;entryDy=0;fontColor=#000000;fontFamily=Arial;fontSource=https%3A%2F%2Ffonts.googleapis.com%2Fcss%3Ffamily%3DArial;strokeColor=#000000;" parent="1" source="6" target="12" edge="1">
                    <mxGeometry relative="1" as="geometry"/>
                </mxCell>
                <mxCell id="12" value="Search Parameters" style="swimlane;whiteSpace=wrap;html=1;fontFamily=Arial;fontSource=https%3A%2F%2Ffonts.googleapis.com%2Fcss%3Ffamily%3DArial;strokeColor=#000000;fillColor=#808080;fontColor=#000000;" parent="1" vertex="1">
                    <mxGeometry x="-750" y="-904" width="400" height="80" as="geometry"/>
                </mxCell>
                <mxCell id="13" value="Product Keyword" style="rounded=0;whiteSpace=wrap;html=1;fontFamily=Arial;fontSource=https%3A%2F%2Ffonts.googleapis.com%2Fcss%3Ffamily%3DArial;strokeColor=#000000;fillColor=#B3B3B3;fontColor=#000000;" parent="12" vertex="1">
                    <mxGeometry x="140" y="30" width="120" height="40" as="geometry"/>
                </mxCell>
                <mxCell id="14" style="edgeStyle=orthogonalEdgeStyle;rounded=0;orthogonalLoop=1;jettySize=auto;html=1;fontColor=#000000;fontFamily=Arial;fontSource=https%3A%2F%2Ffonts.googleapis.com%2Fcss%3Ffamily%3DArial;strokeColor=#000000;" parent="12" edge="1">
                    <mxGeometry relative="1" as="geometry">
                        <mxPoint x="420" y="50" as="targetPoint"/>
                        <mxPoint x="400" y="50" as="sourcePoint"/>
                    </mxGeometry>
                </mxCell>
                <mxCell id="15" value="Product Pairing" style="rounded=0;whiteSpace=wrap;html=1;fontFamily=Arial;fontSource=https%3A%2F%2Ffonts.googleapis.com%2Fcss%3Ffamily%3DArial;strokeColor=#000000;fillColor=#B3B3B3;fontColor=#000000;" parent="12" vertex="1">
                    <mxGeometry x="270" y="30" width="120" height="40" as="geometry"/>
                </mxCell>
                <mxCell id="16" value="Trimming Margin" style="rounded=0;whiteSpace=wrap;html=1;fontFamily=Arial;fontSource=https%3A%2F%2Ffonts.googleapis.com%2Fcss%3Ffamily%3DArial;strokeColor=#000000;fillColor=#B3B3B3;fontColor=#000000;" parent="12" vertex="1">
                    <mxGeometry x="10" y="30" width="120" height="40" as="geometry"/>
                </mxCell>
                <mxCell id="17" value="Locate Protein Record&lt;div&gt;Link Nucleotide Record&lt;/div&gt;&lt;div&gt;Search Nucleotide Record&lt;/div&gt;" style="shape=process;whiteSpace=wrap;html=1;backgroundOutline=1;fontFamily=Arial;fontSource=https%3A%2F%2Ffonts.googleapis.com%2Fcss%3Ffamily%3DArial;strokeColor=#000000;fillColor=#E6E6E6;fontColor=#000000;" parent="1" vertex="1">
                    <mxGeometry x="-675" y="-804" width="250" height="60" as="geometry"/>
                </mxCell>
                <mxCell id="18" style="edgeStyle=orthogonalEdgeStyle;rounded=0;orthogonalLoop=1;jettySize=auto;html=1;exitX=0.5;exitY=1;exitDx=0;exitDy=0;entryX=0.5;entryY=0;entryDx=0;entryDy=0;fontColor=#000000;fontFamily=Arial;fontSource=https%3A%2F%2Ffonts.googleapis.com%2Fcss%3Ffamily%3DArial;strokeColor=#000000;" parent="1" source="12" target="17" edge="1">
                    <mxGeometry relative="1" as="geometry"/>
                </mxCell>
                <mxCell id="19" value="Display Saved Results Location" style="rounded=1;whiteSpace=wrap;html=1;fontSize=12;glass=0;strokeWidth=1;shadow=0;strokeColor=#000000;fillColor=#E6E6E6;fontColor=#000000;fontFamily=Arial;fontSource=https%3A%2F%2Ffonts.googleapis.com%2Fcss%3Ffamily%3DArial;" parent="1" vertex="1">
                    <mxGeometry x="-750" y="-624" width="560" height="40" as="geometry"/>
                </mxCell>
                <mxCell id="20" value="Convert Failed Records CDS to JSON" style="shape=process;whiteSpace=wrap;html=1;backgroundOutline=1;strokeColor=#000000;fillColor=#EBA98D;fontColor=#000000;fontFamily=Arial;fontSource=https%3A%2F%2Ffonts.googleapis.com%2Fcss%3Ffamily%3DArial;" parent="1" vertex="1">
                    <mxGeometry x="-750" y="-704" width="170" height="60" as="geometry"/>
                </mxCell>
                <mxCell id="21" style="edgeStyle=orthogonalEdgeStyle;rounded=0;orthogonalLoop=1;jettySize=auto;html=1;exitX=0.5;exitY=1;exitDx=0;exitDy=0;entryX=0.5;entryY=0;entryDx=0;entryDy=0;strokeColor=#000000;fillColor=#CCCCCC;fontColor=#000000;fontFamily=Arial;fontSource=https%3A%2F%2Ffonts.googleapis.com%2Fcss%3Ffamily%3DArial;" parent="1" source="17" target="20" edge="1">
                    <mxGeometry relative="1" as="geometry">
                        <Array as="points">
                            <mxPoint x="-550" y="-724"/>
                            <mxPoint x="-665" y="-724"/>
                        </Array>
                    </mxGeometry>
                </mxCell>
                <mxCell id="22" value="Trim Hit Records&lt;div&gt;Write to FASTA&lt;/div&gt;" style="shape=process;whiteSpace=wrap;html=1;backgroundOutline=1;fillColor=#cdeb8b;strokeColor=#000000;fontColor=#000000;fontFamily=Arial;fontSource=https%3A%2F%2Ffonts.googleapis.com%2Fcss%3Ffamily%3DArial;" parent="1" vertex="1">
                    <mxGeometry x="-530" y="-704" width="170" height="60" as="geometry"/>
                </mxCell>
                <mxCell id="23" style="edgeStyle=orthogonalEdgeStyle;rounded=0;orthogonalLoop=1;jettySize=auto;html=1;exitX=0.5;exitY=1;exitDx=0;exitDy=0;entryX=0.5;entryY=0;entryDx=0;entryDy=0;strokeColor=#000000;fillColor=#CCCCCC;fontColor=#000000;fontFamily=Arial;fontSource=https%3A%2F%2Ffonts.googleapis.com%2Fcss%3Ffamily%3DArial;" parent="1" source="17" target="22" edge="1">
                    <mxGeometry relative="1" as="geometry">
                        <Array as="points">
                            <mxPoint x="-550" y="-724"/>
                            <mxPoint x="-445" y="-724"/>
                        </Array>
                    </mxGeometry>
                </mxCell>
                <mxCell id="24" value="&lt;font&gt;Welcome &amp;amp; System/Environment Information&lt;/font&gt;" style="rounded=1;whiteSpace=wrap;html=1;fontSize=12;glass=0;strokeWidth=1;shadow=0;strokeColor=#000000;fillColor=#E6E6E6;fontColor=#000000;fontFamily=Arial;fontSource=https%3A%2F%2Ffonts.googleapis.com%2Fcss%3Ffamily%3DArial;" parent="1" vertex="1">
                    <mxGeometry x="-750" y="-1104" width="560" height="40" as="geometry"/>
                </mxCell>
                <mxCell id="25" value="Optional" style="swimlane;whiteSpace=wrap;html=1;fontFamily=Arial;fontSource=https%3A%2F%2Ffonts.googleapis.com%2Fcss%3Ffamily%3DArial;strokeColor=#000000;fillColor=#808080;fontColor=#000000;" parent="1" vertex="1">
                    <mxGeometry x="-328.75" y="-904" width="138.75" height="180" as="geometry"/>
                </mxCell>
                <mxCell id="26" value="Product Pairs" style="rounded=0;whiteSpace=wrap;html=1;fontFamily=Arial;fontSource=https%3A%2F%2Ffonts.googleapis.com%2Fcss%3Ffamily%3DArial;strokeColor=#000000;fillColor=#B3B3B3;fontColor=#000000;" parent="25" vertex="1">
                    <mxGeometry x="8.75" y="30" width="120" height="40" as="geometry"/>
                </mxCell>
                <mxCell id="27" value="Separation Direction" style="rounded=0;whiteSpace=wrap;html=1;fontFamily=Arial;fontSource=https%3A%2F%2Ffonts.googleapis.com%2Fcss%3Ffamily%3DArial;strokeColor=#000000;fillColor=#B3B3B3;fontColor=#000000;" parent="25" vertex="1">
                    <mxGeometry x="8.75" y="130" width="120" height="40" as="geometry"/>
                </mxCell>
                <mxCell id="28" value="Pair Separation" style="rounded=0;whiteSpace=wrap;html=1;fontFamily=Arial;fontSource=https%3A%2F%2Ffonts.googleapis.com%2Fcss%3Ffamily%3DArial;strokeColor=#000000;fontColor=#000000;fillColor=#B3B3B3;" parent="25" vertex="1">
                    <mxGeometry x="8.75" y="80" width="120" height="40" as="geometry"/>
                </mxCell>
                <mxCell id="29" value="Input File Location" style="rectangle;whiteSpace=wrap;html=1;fontFamily=Arial;fontSource=https%3A%2F%2Ffonts.googleapis.com%2Fcss%3Ffamily%3DArial;strokeColor=#000000;fillColor=#B3B3B3;fontColor=#000000;" parent="1" vertex="1">
                    <mxGeometry x="-610" y="-1024" width="120" height="40" as="geometry"/>
                </mxCell>
                <mxCell id="30" value="Batch Management" style="rectangle;whiteSpace=wrap;html=1;fontFamily=Arial;fontSource=https%3A%2F%2Ffonts.googleapis.com%2Fcss%3Ffamily%3DArial;strokeColor=#000000;fillColor=#B3B3B3;fontColor=#000000;" parent="1" vertex="1">
                    <mxGeometry x="-740" y="-974" width="120" height="40" as="geometry"/>
                </mxCell>
            </root>
        </mxGraphModel>
    </diagram>
</mxfile>